<svg xmlns="http://www.w3.org/2000/svg">
  <defs>
    <symbol id="soundcloud" fill="currentColor" viewBox="0 0 300 300">
      <g id="XMLID_526_">
	      <path id="XMLID_527_" d="M14.492,208.896c0.619,0,1.143-0.509,1.232-1.226l3.365-26.671l-3.355-27.278c-0.1-0.717-0.623-1.23-1.242-1.23c-0.635,0-1.176,0.524-1.26,1.23l-2.941,27.278l2.941,26.662C13.316,208.377,13.857,208.896,14.492,208.896z"/>
	      <path id="XMLID_530_" d="M3.397,198.752c0.608,0,1.101-0.473,1.19-1.18l2.608-16.574l-2.608-16.884c-0.09-0.685-0.582-1.18-1.19-1.18c-0.635,0-1.127,0.495-1.217,1.19L0,180.999l2.18,16.569C2.27,198.269,2.762,198.752,3.397,198.752z"/>
	      <path id="XMLID_531_" d="M27.762,148.644c-0.08-0.867-0.715-1.5-1.503-1.5c-0.782,0-1.418,0.633-1.491,1.5l-2.811,32.355l2.811,31.174c0.073,0.862,0.709,1.487,1.491,1.487c0.788,0,1.423-0.625,1.503-1.487l3.18-31.174L27.762,148.644z"/>
	      <path id="XMLID_532_" d="M38.152,214.916c0.922,0,1.668-0.759,1.758-1.751l3.005-32.156l-3.005-33.258c-0.09-0.999-0.836-1.749-1.758-1.749c-0.935,0-1.692,0.751-1.756,1.754l-2.656,33.253l2.656,32.156C36.46,214.158,37.217,214.916,38.152,214.916z"/>
	      <path id="XMLID_533_" d="M50.127,215.438c1.074,0,1.936-0.86,2.025-2.011l-0.01,0.008l2.83-32.426l-2.83-30.857c-0.08-1.132-0.941-2.005-2.016-2.005c-1.09,0-1.947,0.873-2.012,2.014l-2.502,30.849l2.502,32.418C48.18,214.578,49.037,215.438,50.127,215.438z"/>
	      <path id="XMLID_534_" d="M67.132,181.017l-2.655-50.172c-0.074-1.272-1.065-2.286-2.281-2.286c-1.207,0-2.195,1.013-2.269,2.286l-2.35,50.172l2.35,32.418c0.074,1.278,1.063,2.278,2.269,2.278c1.217,0,2.207-1,2.281-2.278v0.009L67.132,181.017z"/>
	      <path id="XMLID_535_" d="M74.386,215.766c1.339,0,2.45-1.111,2.513-2.529v0.021l2.482-32.233l-2.482-61.656c-0.063-1.418-1.174-2.529-2.513-2.529c-1.37,0-2.471,1.111-2.545,2.529l-2.185,61.656l2.195,32.222C71.915,214.655,73.016,215.766,74.386,215.766z"/>
	      <path id="XMLID_536_" d="M86.645,111.435c-1.508,0-2.725,1.238-2.787,2.799l-2.033,66.801l2.033,31.884c0.063,1.553,1.279,2.783,2.787,2.783c1.504,0,2.73-1.22,2.783-2.788v0.016l2.307-31.895l-2.307-66.801C89.375,112.663,88.148,111.435,86.645,111.435z"/>
	      <path id="XMLID_782_" d="M99.01,215.766c1.656,0,2.975-1.336,3.037-3.056v0.019l2.133-31.693l-2.133-69.045c-0.063-1.714-1.381-3.056-3.037-3.056c-1.666,0-3.005,1.342-3.031,3.056l-1.916,69.045l1.916,31.693C96.005,214.43,97.344,215.766,99.01,215.766z"/>
	      <path id="XMLID_783_" d="M111.477,215.734c1.787,0,3.237-1.463,3.291-3.318v0.029l1.963-31.404l-1.963-67.289c-0.054-1.854-1.504-3.311-3.291-3.311c-1.8,0-3.25,1.456-3.303,3.311l-1.725,67.289l1.736,31.389C108.227,214.271,109.677,215.734,111.477,215.734z"/>
	      <path id="XMLID_784_" d="M129.359,181.041l-1.777-64.836c-0.043-2-1.609-3.571-3.551-3.571c-1.947,0-3.514,1.571-3.555,3.584l-1.594,64.823l1.594,31.198c0.041,1.984,1.607,3.556,3.555,3.556c1.941,0,3.508-1.572,3.551-3.585v0.029L129.359,181.041z"/>
	      <path id="XMLID_785_" d="M136.682,215.853c2.064,0,3.773-1.717,3.805-3.828v0.017l1.613-30.984l-1.613-77.153c-0.031-2.119-1.74-3.833-3.805-3.833c-2.063,0-3.767,1.722-3.809,3.844l-1.434,77.111l1.434,31.016C132.915,214.136,134.619,215.853,136.682,215.853z"/>
	      <path id="XMLID_786_" d="M149.291,92.814c-2.229,0-4.037,1.849-4.074,4.103l-1.667,84.151l1.677,30.526c0.027,2.225,1.836,4.068,4.064,4.068c2.195,0,4.037-1.844,4.047-4.105v0.037l1.82-30.526l-1.82-84.151C153.328,94.655,151.486,92.814,149.291,92.814z"/>
	      <path id="XMLID_787_" d="M160.82,215.882c0.09,0.008,101.623,0.056,102.275,0.056c20.385,0,36.904-16.722,36.904-37.357c0-20.624-16.52-37.349-36.904-37.349c-5.059,0-9.879,1.034-14.275,2.907c-2.922-33.671-30.815-60.077-64.842-60.077c-8.318,0-16.429,1.662-23.593,4.469c-2.788,1.09-3.534,2.214-3.556,4.392v118.539C156.861,213.752,158.607,215.655,160.82,215.882z"/>
      </g>
    </symbol>

    <symbol id="spotify" fill="currentColor" class="bi bi-spotify" viewBox="0 0 16 16">
      <path d="M8 0a8 8 0 1 0 0 16A8 8 0 0 0 8 0zm3.669 11.538a.498.498 0 0 1-.686.165c-1.879-1.147-4.243-1.407-7.028-.77a.499.499 0 0 1-.222-.973c3.048-.696 5.662-.397 7.77.892a.5.5 0 0 1 .166.686zm.979-2.178a.624.624 0 0 1-.858.205c-2.15-1.321-5.428-1.704-7.972-.932a.625.625 0 0 1-.362-1.194c2.905-.881 6.517-.454 8.986 1.063a.624.624 0 0 1 .206.858zm.084-2.268C10.154 5.56 5.9 5.419 3.438 6.166a.748.748 0 1 1-.434-1.432c2.825-.857 7.523-.692 10.492 1.07a.747.747 0 1 1-.764 1.288z"/>
    </symbol>

    <symbol id="apple_music" x="0px" y="0px" viewBox="0 0 73 73" style="enable-background:new 0 0 73 73;" fill="currentColor">
      <style type="text/css">
        .st0{fill-rule:evenodd;clip-rule:evenodd;}
      </style>
      <g id="Layer_5">
      </g>
      <g>
        <g>
          <path class="st0" d="M72,19.94c0-0.72-0.01-1.45-0.03-2.17c-0.04-1.58-0.14-3.17-0.42-4.73c-0.28-1.58-0.75-3.06-1.48-4.5c-0.72-1.41-1.66-2.71-2.78-3.83c-1.12-1.12-2.42-2.06-3.83-2.78c-1.44-0.73-2.91-1.2-4.49-1.48c-1.56-0.28-3.15-0.37-4.73-0.42C53.51,0.02,52.78,0.01,52.06,0c-0.86,0-1.72,0-2.58,0H22.52c-0.86,0-1.72,0-2.58,0c-0.72,0-1.45,0.01-2.17,0.03c-1.58,0.04-3.17,0.14-4.73,0.42C11.46,0.74,9.98,1.2,8.55,1.94C7.13,2.66,5.84,3.6,4.72,4.72S2.65,7.13,1.93,8.55c-0.73,1.44-1.2,2.91-1.48,4.5c-0.28,1.56-0.37,3.15-0.42,4.73C0.02,18.5,0.01,19.22,0,19.95c0,0.86,0,1.72,0,2.58v26.96c0,0.86,0,1.72,0,2.58c0,0.72,0.01,1.45,0.03,2.17c0.04,1.58,0.14,3.17,0.42,4.73c0.28,1.58,0.75,3.06,1.48,4.5c0.72,1.41,1.66,2.71,2.78,3.83c1.12,1.12,2.42,2.06,3.83,2.78c1.44,0.73,2.91,1.2,4.49,1.48c1.56,0.28,3.15,0.37,4.73,0.42c0.72,0.02,1.45,0.03,2.17,0.03c0.86,0.01,1.72,0,2.58,0h26.95c0.86,0,1.72,0,2.58,0c0.72,0,1.45-0.01,2.17-0.03c1.58-0.04,3.17-0.14,4.73-0.42c1.58-0.28,3.06-0.75,4.49-1.48c1.41-0.72,2.71-1.66,3.83-2.78s2.06-2.41,2.78-3.83c0.73-1.44,1.2-2.91,1.48-4.5c0.28-1.56,0.37-3.15,0.42-4.73c0.02-0.72,0.03-1.45,0.03-2.17c0.01-0.86,0-1.72,0-2.58V22.52C72,21.66,72,20.8,72,19.94z M52.71,46.85c0,0.91-0.01,1.74-0.2,2.65c-0.19,0.89-0.53,1.72-1.05,2.47c-0.52,0.75-1.19,1.36-1.97,1.82c-0.79,0.47-1.62,0.73-2.5,0.91c-1.66,0.33-2.79,0.41-3.86,0.2c-1.03-0.21-1.9-0.68-2.6-1.32c-1.03-0.95-1.68-2.23-1.82-3.56c-0.16-1.57,0.36-3.24,1.53-4.48c0.59-0.62,1.34-1.11,2.34-1.5c1.04-0.4,2.19-0.65,3.96-1c0.47-0.09,0.93-0.19,1.4-0.28c0.61-0.12,1.14-0.28,1.56-0.8c0.43-0.52,0.43-1.16,0.43-1.78V24.32c0-1.21-0.54-1.54-1.7-1.32c-0.83,0.16-18.62,3.75-18.62,3.75c-1,0.24-1.36,0.57-1.36,1.82v23.23c0,0.91-0.05,1.74-0.24,2.65c-0.19,0.89-0.53,1.72-1.05,2.47c-0.52,0.75-1.19,1.36-1.97,1.82c-0.79,0.47-1.62,0.74-2.5,0.92c-1.66,0.33-2.79,0.41-3.86,0.2c-1.03-0.21-1.9-0.69-2.6-1.33c-1.03-0.95-1.63-2.23-1.78-3.56c-0.16-1.57,0.31-3.24,1.49-4.48c0.59-0.62,1.34-1.11,2.34-1.5c1.04-0.4,2.19-0.65,3.96-1c0.47-0.09,0.93-0.19,1.4-0.28c0.61-0.12,1.14-0.28,1.56-0.8c0.42-0.52,0.47-1.13,0.47-1.75c0-4.92,0-26.79,0-26.79c0-0.36,0.03-0.6,0.05-0.72c0.09-0.56,0.31-1.05,0.72-1.39c0.34-0.28,0.78-0.48,1.33-0.6l0.01,0L49,11.33c0.19-0.04,1.73-0.31,1.91-0.33c1.16-0.1,1.81,0.66,1.81,1.89L52.71,46.85L52.71,46.85z"/>
        </g>
      </g>
    </symbol>


  </defs>
</svg>
